<svg id="SvgjsSvg1069" width="100%" height="80" xmlns="http://www.w3.org/2000/svg" version="1.1" xlink="http://www.w3.org/1999/xlink" xmlns:svgjs="http://svgjs.com/svgjs" preserveAspectRatio="xMidYMid meet" viewBox="1.3688643996090377e-8 2.1024182217388443e-7 300 66.74327850341797" overflow="visible"><defs id="SvgjsDefs1070"></defs><g id="SvgjsG1071" transform="scale(0.8191370051613237)" opacity="1"><g id="SvgjsG1072" class="Mr3n0mGAZ" transform="translate(-0.22664249474805506, -0.1385165570726151) scale(0.8994469781732518)" light-content="false" non-strokable="false" fill="#f94b48"><path d="M9.647 54.846c4.461 0 8.202-3.132 9.153-7.308h5.027c.295 2.889 1.553 5.572 3.554 7.481a10.145 10.145 0 0 0 3.473 2.164l-5.706 5.708a9.34 9.34 0 0 0-11.632 1.297 9.332 9.332 0 0 0-2.753 6.645c0 2.509.978 4.868 2.753 6.643a9.332 9.332 0 0 0 6.645 2.753 9.326 9.326 0 0 0 6.643-2.753 9.325 9.325 0 0 0 2.753-6.646 9.307 9.307 0 0 0-1.454-4.982l7.744-7.744c.089-.089.13-.203.2-.303h7.408v14.393c-4.178.952-7.307 4.691-7.307 9.153 0 5.183 4.215 9.396 9.396 9.396 5.182 0 9.396-4.213 9.396-9.396 0-4.462-3.13-8.201-7.306-9.153V57.8h.277a2.09 2.09 0 0 0 0-4.178l-13.626.002c-1.446.041-2.879-.539-4.018-1.627-1.438-1.373-2.288-3.404-2.33-5.574-.087-4.081 2.637-7.472 6.072-7.565.905-.021 1.817.213 2.718.708.002.002.006.002.006.002 1.173.638 1.846 2.237 1.947 2.953a2.088 2.088 0 0 0 4.137-.581c-.211-1.502-1.063-3.432-2.503-4.851 1.685-3.156 4.64-5.181 7.854-5.266 2.257-.06 4.469.826 6.224 2.501 2.167 2.067 3.449 5.119 3.519 8.426a2.09 2.09 0 0 0 1.895 2.057c1.863.172 3.304 2.008 3.349 4.269.052 2.445-1.54 4.475-3.492 4.527h-3.477c-.63 0-1.175.295-1.559.734-.037.031-.081.043-.116.078a2.09 2.09 0 0 0 0 2.953l8.477 8.475a9.298 9.298 0 0 0-1.456 4.986c0 2.513.976 4.872 2.753 6.646 1.774 1.774 4.134 2.751 6.643 2.751s4.868-.977 6.645-2.751 2.753-4.134 2.753-6.646a9.33 9.33 0 0 0-2.753-6.643 9.348 9.348 0 0 0-6.645-2.753 9.315 9.315 0 0 0-4.986 1.456l-5.245-5.246c3.819-.639 6.729-4.293 6.637-8.653a9.125 9.125 0 0 0-.149-1.452h5.104c.954 4.176 4.691 7.308 9.155 7.308 5.181 0 9.396-4.218 9.396-9.398 0-5.181-4.215-9.396-9.396-9.396-4.464 0-8.201 3.129-9.155 7.307h-7.05c-.882-1.043-1.987-1.857-3.255-2.315a16.468 16.468 0 0 0-2.312-6.759l6.271-6.28a9.293 9.293 0 0 0 4.986 1.456c2.511 0 4.87-.977 6.643-2.753a9.32 9.32 0 0 0 2.755-6.645c0-2.509-.977-4.867-2.753-6.643s-4.136-2.753-6.645-2.753c-2.511 0-4.87.978-6.643 2.753a9.324 9.324 0 0 0-2.753 6.646c0 1.795.52 3.505 1.456 4.987l-5.993 5.999c-2.524-2.282-5.677-3.498-8.939-3.409-.142.006-.281.033-.421.043v-8.981c4.176-.954 7.306-4.692 7.306-9.155 0-5.181-4.214-9.396-9.396-9.396-5.181 0-9.396 4.215-9.396 9.396 0 4.463 3.129 8.202 7.307 9.155v9.991c-2.474 1.076-4.626 2.939-6.185 5.376l-9.161-9.033a9.312 9.312 0 0 0 1.448-4.977 9.334 9.334 0 0 0-2.751-6.643 9.324 9.324 0 0 0-6.645-2.753 9.328 9.328 0 0 0-6.645 2.753 9.326 9.326 0 0 0-2.751 6.643c0 2.511.976 4.87 2.751 6.643a9.326 9.326 0 0 0 6.645 2.755 9.278 9.278 0 0 0 4.998-1.464l7.001 6.904c-3.946.853-7.079 4.188-8.07 8.457h-5.291c-.952-4.178-4.692-7.307-9.153-7.307-5.183 0-9.396 4.215-9.396 9.396 0 5.182 4.213 9.4 9.395 9.4zm41.116 26.5c0 2.879-2.342 5.219-5.219 5.219s-5.219-2.34-5.219-5.219c0-2.877 2.342-5.22 5.219-5.22s5.219 2.343 5.219 5.22zM23.85 74.522c-1.97 1.972-5.407 1.972-7.379 0a5.191 5.191 0 0 1-1.53-3.691 5.18 5.18 0 0 1 1.532-3.688 5.179 5.179 0 0 1 3.69-1.53c1.392 0 2.703.541 3.689 1.532a5.173 5.173 0 0 1 1.528 3.684 5.182 5.182 0 0 1-1.53 3.693zm50.766-7.382a5.185 5.185 0 0 1 1.53 3.689 5.184 5.184 0 0 1-1.53 3.693c-1.97 1.97-5.409 1.97-7.379 0a5.182 5.182 0 0 1-1.528-3.693c0-1.392.541-2.702 1.528-3.689a5.186 5.186 0 0 1 3.689-1.528 5.174 5.174 0 0 1 3.69 1.528zm6.825-26.91a5.222 5.222 0 0 1 5.217 5.217 5.225 5.225 0 0 1-5.217 5.221 5.226 5.226 0 0 1-5.22-5.221 5.225 5.225 0 0 1 5.22-5.217zM67.237 16.375a5.186 5.186 0 0 1 3.689-1.528c1.393 0 2.705.543 3.689 1.528.987.985 1.53 2.296 1.53 3.69s-.543 2.705-1.53 3.691c-1.972 1.972-5.407 1.974-7.379-.002a5.17 5.17 0 0 1-1.528-3.686 5.189 5.189 0 0 1 1.529-3.693zM40.324 9.552c0-2.877 2.342-5.217 5.219-5.217s5.219 2.34 5.219 5.217-2.342 5.218-5.219 5.218-5.219-2.341-5.219-5.218zM16.47 23.756c-.985-.987-1.528-2.297-1.528-3.691s.543-2.705 1.528-3.69c.987-.985 2.298-1.528 3.692-1.528s2.705.543 3.689 1.528c.987.985 1.528 2.296 1.528 3.69s-.541 2.705-1.528 3.691c-1.971 1.972-5.407 1.972-7.381 0zM9.647 40.23a5.223 5.223 0 0 1 5.218 5.217 5.225 5.225 0 0 1-5.218 5.221 5.225 5.225 0 0 1-5.219-5.221 5.224 5.224 0 0 1 5.219-5.217z"></path></g><g id="SvgjsG1073" class="text" transform="translate(238.25909933234416, 60.6299983215332) scale(1)" light-content="false" fill="#141414"><path d="M-129.78 -1.86C-126.62 -0.3 -122.78 0.48 -118.26 0.48C-113.62 0.48 -110.27 -0.23 -108.21 -1.65C-106.15 -3.07 -105.12 -5.2 -105.12 -8.04C-105.12 -10.12 -105.51 -11.75 -106.29 -12.93C-107.07 -14.11 -108.16 -14.99 -109.56 -15.57C-110.96 -16.15 -112.84 -16.68 -115.2 -17.16C-117.32 -17.6 -118.76 -17.98 -119.52 -18.3C-120.28 -18.62 -120.66 -19.16 -120.66 -19.92C-120.66 -21.24 -119.62 -21.9 -117.54 -21.9C-116.54 -21.9 -115.64 -21.82 -114.84 -21.66L-114.36 -18.96L-107.16 -18.96C-106.96 -19.52 -106.78 -20.45 -106.62 -21.75C-106.46 -23.05 -106.38 -24.1 -106.38 -24.9L-106.38 -26.88C-107.7 -27.48 -109.31 -27.97 -111.21 -28.35C-113.11 -28.73 -115.02 -28.92 -116.94 -28.92C-125.34 -28.92 -129.54 -25.98 -129.54 -20.1C-129.54 -17.98 -129.12 -16.32 -128.28 -15.12C-127.44 -13.92 -126.26 -12.99 -124.74 -12.33C-123.22 -11.67 -121.08 -11.02 -118.32 -10.38C-116.48 -9.94 -115.29 -9.6 -114.75 -9.36C-114.21 -9.12 -113.94 -8.76 -113.94 -8.28C-113.94 -7.8 -114.04 -7.44 -114.24 -7.2C-115.44 -7 -116.88 -6.9 -118.56 -6.9C-119.88 -6.9 -121.3 -7.06 -122.82 -7.38C-124.34 -7.7 -125.82 -8.16 -127.26 -8.76Z M-74.1 -0.57C-73.22 0.01 -71.94 0.3 -70.26 0.3C-68.3 0.3 -66.72 0.1 -65.52 -0.3L-65.52 -4.26L-68.04 -4.92L-70.38 -9.48C-71.34 -11.12 -72.25 -12.27 -73.11 -12.93C-73.97 -13.59 -75.3 -14.12 -77.1 -14.52L-77.1 -14.88C-75.1 -15.36 -73.59 -15.96 -72.57 -16.68C-71.55 -17.4 -70.74 -18.44 -70.14 -19.8L-67.44 -26.04L-75.78 -28.92L-78.96 -21.18C-79.44 -20.06 -79.96 -19.32 -80.52 -18.96C-81.08 -18.6 -81.98 -18.42 -83.22 -18.42L-84.48 -18.42L-84.48 -40.26L-93.36 -40.26L-93.36 0L-84.48 0L-84.48 -11.04L-82.92 -11.04C-81.68 -11.04 -80.74 -10.82 -80.1 -10.38C-79.46 -9.94 -78.84 -9.06 -78.24 -7.74L-76.32 -3.42C-75.72 -2.1 -74.98 -1.15 -74.1 -0.57Z M-54.24 -40.26L-54.24 -32.22L-45.24 -32.22L-45.24 -40.26ZM-54.18 -28.32L-54.18 0L-45.3 0L-45.3 -28.32Z M-30.96 -28.32L-30.96 0L-22.14 0L-22.14 -18.6C-20.66 -19.88 -18.6 -20.52 -15.96 -20.52C-14.64 -20.52 -13.58 -20.34 -12.78 -19.98L-12.78 0L-3.96 0L-3.96 -20.64C-3.96 -23.28 -4.67 -25.32 -6.09 -26.76C-7.51 -28.2 -9.58 -28.92 -12.3 -28.92C-16.3 -28.92 -19.52 -27.24 -21.96 -23.88L-22.44 -23.88L-22.8 -28.32Z M11.85 -3.24C14.39 -0.84 18.04 0.36 22.8 0.36C25.56 0.36 27.91 0.09 29.85 -0.45C31.79 -0.99 33.52 -1.76 35.04 -2.76L32.88 -9.6C31.48 -8.8 30.02 -8.19 28.5 -7.77C26.98 -7.35 25.18 -7.14 23.1 -7.14C20.78 -7.14 19.13 -7.49 18.15 -8.19C17.17 -8.89 16.68 -9.94 16.68 -11.34L30.6 -11.22L34.98 -15.54C35.02 -15.86 35.04 -16.32 35.04 -16.92C35.04 -20.64 33.93 -23.57 31.71 -25.71C29.49 -27.85 26.34 -28.92 22.26 -28.92C17.66 -28.92 14.14 -27.64 11.7 -25.08C9.26 -22.52 8.04 -18.78 8.04 -13.86C8.04 -9.18 9.31 -5.64 11.85 -3.24ZM26.58 -17.16L16.62 -16.92C16.7 -18.4 17.16 -19.53 18 -20.31C18.84 -21.09 20.2 -21.48 22.08 -21.48C23.44 -21.48 24.56 -21.19 25.44 -20.61C26.32 -20.03 26.76 -19.24 26.76 -18.24C26.76 -17.96 26.7 -17.6 26.58 -17.16Z M47.22 -8.46L47.22 0L56.46 0L56.46 -8.46Z M70.2 -28.32L70.2 0L79.08 0L79.08 -16.68C81.04 -18.48 83.74 -19.38 87.18 -19.38L89.7 -19.38L90.6 -27.12C90.32 -27.44 89.91 -27.76 89.37 -28.08C88.83 -28.4 88.4 -28.56 88.08 -28.56C86.04 -28.56 84.33 -28.05 82.95 -27.03C81.57 -26.01 80.34 -24.52 79.26 -22.56L78.66 -22.56L78.3 -28.32Z M103.5 -1.77C104.98 -0.27 107.1 0.48 109.86 0.48C111.98 0.48 113.75 0.08 115.17 -0.72C116.59 -1.52 117.94 -2.72 119.22 -4.32L119.7 -4.32L120.06 0L127.98 0L127.98 -28.32L118.98 -28.32L118.98 -9.72C117.66 -8.36 115.78 -7.68 113.34 -7.68C112.22 -7.68 111.2 -7.84 110.28 -8.16L110.28 -28.32L101.28 -28.32L101.28 -8.46C101.28 -5.5 102.02 -3.27 103.5 -1.77Z"></path></g></g></svg>